<svg width="79" height="62" fill="none" xmlns="http://www.w3.org/2000/svg"><circle cx="1.409" cy="1.409" r="1.409" fill="#DC7000"/><circle cx="9.864" cy="1.409" r="1.409" fill="#DC7000"/><circle cx="18.318" cy="1.409" r="1.409" fill="#DC7000"/><circle cx="26.773" cy="1.409" r="1.409" fill="#DC7000"/><circle cx="35.227" cy="1.409" r="1.409" fill="#DC7000"/><circle cx="43.682" cy="1.409" r="1.409" fill="#DC7000"/><circle cx="52.136" cy="1.409" r="1.409" fill="#DC7000"/><circle cx="60.591" cy="1.409" r="1.409" fill="#DC7000"/><circle cx="69.045" cy="1.409" r="1.409" fill="#DC7000"/><circle cx="77.5" cy="1.409" r="1.409" fill="#DC7000"/><circle cx="1.409" cy="9.864" r="1.409" fill="#DC7000"/><circle cx="9.864" cy="9.864" r="1.409" fill="#DC7000"/><circle cx="18.318" cy="9.864" r="1.409" fill="#DC7000"/><circle cx="26.773" cy="9.864" r="1.409" fill="#DC7000"/><circle cx="35.227" cy="9.864" r="1.409" fill="#DC7000"/><circle cx="43.682" cy="9.864" r="1.409" fill="#DC7000"/><circle cx="52.136" cy="9.864" r="1.409" fill="#DC7000"/><circle cx="60.591" cy="9.864" r="1.409" fill="#DC7000"/><circle cx="69.045" cy="9.864" r="1.409" fill="#DC7000"/><circle cx="77.5" cy="9.864" r="1.409" fill="#DC7000"/><circle cx="1.409" cy="18.318" r="1.409" fill="#DC7000"/><circle cx="9.864" cy="18.318" r="1.409" fill="#DC7000"/><circle cx="18.318" cy="18.318" r="1.409" fill="#DC7000"/><circle cx="26.773" cy="18.318" r="1.409" fill="#DC7000"/><circle cx="35.227" cy="18.318" r="1.409" fill="#DC7000"/><circle cx="43.682" cy="18.318" r="1.409" fill="#DC7000"/><circle cx="52.136" cy="18.318" r="1.409" fill="#DC7000"/><circle cx="60.591" cy="18.318" r="1.409" fill="#DC7000"/><circle cx="69.045" cy="18.318" r="1.409" fill="#DC7000"/><circle cx="77.5" cy="18.318" r="1.409" fill="#DC7000"/><circle cx="1.409" cy="26.773" r="1.409" fill="#DC7000"/><circle cx="9.864" cy="26.773" r="1.409" fill="#DC7000"/><circle cx="18.318" cy="26.773" r="1.409" fill="#DC7000"/><circle cx="26.773" cy="26.773" r="1.409" fill="#DC7000"/><circle cx="35.227" cy="26.773" r="1.409" fill="#DC7000"/><circle cx="43.682" cy="26.773" r="1.409" fill="#DC7000"/><circle cx="52.136" cy="26.773" r="1.409" fill="#DC7000"/><circle cx="60.591" cy="26.773" r="1.409" fill="#DC7000"/><circle cx="69.045" cy="26.773" r="1.409" fill="#DC7000"/><circle cx="77.5" cy="26.773" r="1.409" fill="#DC7000"/><circle cx="1.409" cy="35.227" r="1.409" fill="#DC7000"/><circle cx="9.864" cy="35.227" r="1.409" fill="#DC7000"/><circle cx="18.318" cy="35.227" r="1.409" fill="#DC7000"/><circle cx="26.773" cy="35.227" r="1.409" fill="#DC7000"/><circle cx="35.227" cy="35.227" r="1.409" fill="#DC7000"/><circle cx="43.682" cy="35.227" r="1.409" fill="#DC7000"/><circle cx="52.136" cy="35.227" r="1.409" fill="#DC7000"/><circle cx="60.591" cy="35.227" r="1.409" fill="#DC7000"/><circle cx="69.045" cy="35.227" r="1.409" fill="#DC7000"/><circle cx="77.5" cy="35.227" r="1.409" fill="#DC7000"/><circle cx="1.409" cy="43.682" r="1.409" fill="#DC7000"/><circle cx="9.864" cy="43.682" r="1.409" fill="#DC7000"/><circle cx="18.318" cy="43.682" r="1.409" fill="#DC7000"/><circle cx="26.773" cy="43.682" r="1.409" fill="#DC7000"/><circle cx="35.227" cy="43.682" r="1.409" fill="#DC7000"/><circle cx="43.682" cy="43.682" r="1.409" fill="#DC7000"/><circle cx="52.136" cy="43.682" r="1.409" fill="#DC7000"/><circle cx="60.591" cy="43.682" r="1.409" fill="#DC7000"/><circle cx="69.045" cy="43.682" r="1.409" fill="#DC7000"/><circle cx="77.5" cy="43.682" r="1.409" fill="#DC7000"/><circle cx="1.409" cy="52.136" r="1.409" fill="#DC7000"/><circle cx="9.864" cy="52.136" r="1.409" fill="#DC7000"/><circle cx="18.318" cy="52.136" r="1.409" fill="#DC7000"/><circle cx="26.773" cy="52.136" r="1.409" fill="#DC7000"/><circle cx="35.227" cy="52.136" r="1.409" fill="#DC7000"/><circle cx="43.682" cy="52.136" r="1.409" fill="#DC7000"/><circle cx="52.136" cy="52.136" r="1.409" fill="#DC7000"/><circle cx="60.591" cy="52.136" r="1.409" fill="#DC7000"/><circle cx="69.045" cy="52.136" r="1.409" fill="#DC7000"/><circle cx="77.5" cy="52.136" r="1.409" fill="#DC7000"/><circle cx="1.409" cy="52.136" r="1.409" fill="#DC7000"/><circle cx="9.864" cy="52.136" r="1.409" fill="#DC7000"/><circle cx="18.318" cy="52.136" r="1.409" fill="#DC7000"/><circle cx="26.773" cy="52.136" r="1.409" fill="#DC7000"/><circle cx="35.227" cy="52.136" r="1.409" fill="#DC7000"/><circle cx="43.682" cy="52.136" r="1.409" fill="#DC7000"/><circle cx="52.136" cy="52.136" r="1.409" fill="#DC7000"/><circle cx="60.591" cy="52.136" r="1.409" fill="#DC7000"/><circle cx="69.045" cy="52.136" r="1.409" fill="#DC7000"/><circle cx="77.5" cy="52.136" r="1.409" fill="#DC7000"/><circle cx="1.409" cy="60.591" r="1.409" fill="#DC7000"/><circle cx="9.864" cy="60.591" r="1.409" fill="#DC7000"/><circle cx="18.318" cy="60.591" r="1.409" fill="#DC7000"/><circle cx="26.773" cy="60.591" r="1.409" fill="#DC7000"/><circle cx="35.227" cy="60.591" r="1.409" fill="#DC7000"/><circle cx="43.682" cy="60.591" r="1.409" fill="#DC7000"/><circle cx="52.136" cy="60.591" r="1.409" fill="#DC7000"/><circle cx="60.591" cy="60.591" r="1.409" fill="#DC7000"/><circle cx="69.045" cy="60.591" r="1.409" fill="#DC7000"/><circle cx="77.5" cy="60.591" r="1.409" fill="#DC7000"/></svg>